{"title":"Quarry.s01e02.720p.hdtv.x265-killers[GreatIndiaRipper]","uid":15846180,"size":237729675,"categoryP":"video","categoryS":"tv_shows","magnet":"?xt=urn:btih:1fb87e7a24e2894735ba5894dfd6256081901408&amp;dn=Quarry.s01e02.720p.hdtv.x265-killers%5BGreatIndiaRipper%5D&amp;tr=udp%3A%2F%2Ftracker.leechers-paradise.org%3A6969&amp;tr=udp%3A%2F%2Fzer0day.ch%3A1337&amp;tr=udp%3A%2F%2Fopen.demonii.com%3A1337&amp;tr=udp%3A%2F%2Ftracker.coppersurfer.tk%3A6969&amp;tr=udp%3A%2F%2Fexodus.desync.com%3A6969","seeders":3,"leechers":2,"uploader":"greatindiaripper","files":3,"time":1474099897,"description":"General\r\nFormat                      : Matroska\r\nFormat version              : Version 4 / Version 2\r\nFile size                   : 226 MiB\r\nDuration                    : 56 min\r\nOverall bit rate            : 565 kb/s\r\nMovie name                  : Quarry.s01e02.720p.hdtv.x265-killers[GreatIndiaRipper]\r\n\r\n\r\nVideo\r\nID                          : 1\r\nFormat                      : HEVC\r\nFormat/Info                 : High Efficiency Video Coding\r\nFormat profile              :   @Main\r\nCodec ID                    : V_MPEGH/ISO/HEVC\r\nDuration                    : 56 min\r\nBit rate                    : 451 kb/s\r\nWidth                       : 1 280 pixels\r\nHeight                      : 718 pixels\r\nDisplay aspect ratio        : 16:9\r\nFrame rate mode             : Constant\r\nFrame rate                  : 23.976 (24000/1001) FPS\r\nColor space                 : YUV\r\nChroma subsampling          : 4:2:0\r\nBit depth                   : 8 bits\r\nBits/(Pixel*Frame)          : 0.020\r\nStream size                 : 180 MiB (80%)\r\nTitle                       : Quarry.s01e02.720p.hdtv.x265-killers[GreatIndiaRipper]\r\n\r\n\r\nAudio\r\nID                          : 2\r\nFormat                      : AAC\r\nFormat/Info                 : Advanced Audio Codec\r\nFormat profile              : LC\r\nCodec ID                    : A_AAC\r\nDuration                    : 56 min\r\nBit rate                    : 112 kb/s\r\nChannel(s)                  : 2 channels\r\nChannel positions           : Front: L R\r\nSampling rate               : 48.0 kHz\r\nFrame rate                  : 46.875 FPS (1024 spf)\r\nCompression mode            : Lossy\r\nDelay relative to video     : -21 ms\r\nStream size                 : 44.9 MiB (20%)\r\nTitle                       : Quarry.s01e02.720p.hdtv.x265-killers[GreatIndiaRipper]\r\nDefault                     : Yes\r\nForced                      : No","torrent":{"xt":"urn:btih:1fb87e7a24e2894735ba5894dfd6256081901408","amp;dn":"Quarry.s01e02.720p.hdtv.x265-killers%5BGreatIndiaRipper%5D","amp;tr":["udp%3A%2F%2Ftracker.leechers-paradise.org%3A6969","udp%3A%2F%2Fzer0day.ch%3A1337","udp%3A%2F%2Fopen.demonii.com%3A1337","udp%3A%2F%2Ftracker.coppersurfer.tk%3A6969","udp%3A%2F%2Fexodus.desync.com%3A6969"],"infoHash":"1fb87e7a24e2894735ba5894dfd6256081901408","infoHashBuffer":{"type":"Buffer","data":[31,184,126,122,36,226,137,71,53,186,88,148,223,214,37,96,129,144,20,8]},"announce":[],"urlList":[]}}